<svg width="54" height="41" viewBox="0 0 54 41" fill="none" xmlns="http://www.w3.org/2000/svg">
<path d="M7.20473 9.02823H31.2846C32.0687 9.02823 32.5149 9.63011 32.2824 10.3738L28.4731 21.4531C28.2854 22.0509 27.6213 22.5353 26.9906 22.5353H11.2034C10.5727 22.5353 9.90937 22.0509 9.72335 21.4531L6.40353 10.1121C6.21425 9.51346 6.57242 9.02823 7.20473 9.02823Z" fill="white"/>
<path d="M29.107 38.8752C27.1176 38.8752 25.5049 37.274 25.5049 35.2987C25.5049 33.3235 27.1176 31.7223 29.107 31.7223C31.0964 31.7223 32.7091 33.3235 32.7091 35.2987C32.7091 37.274 31.0964 38.8752 29.107 38.8752Z" fill="white"/>
<path d="M13.8648 38.9198C11.8754 38.9198 10.2626 37.3185 10.2626 35.3433C10.2626 33.3681 11.8754 31.7668 13.8648 31.7668C15.8541 31.7668 17.4669 33.3681 17.4669 35.3433C17.4669 37.3185 15.8541 38.9198 13.8648 38.9198Z" fill="white"/>
<path d="M9.53974 26.1749H30.6066L39.0403 2.08026H45.6073C46.7341 2.08026 47.647 2.98673 47.647 4.10543C47.647 5.22414 46.7341 6.1306 45.6073 6.1306H41.9416L33.5078 30.2253H9.53974C8.41301 30.2253 7.50004 29.3188 7.50004 28.2001C7.50004 27.0814 8.41301 26.1749 9.53974 26.1749Z" fill="white"/>
</svg>
