<svg id="Capa_1" enable-background="new 0 0 512 512" fill="#FFFFFF" height="512" viewBox="0 0 512 512" width="512" xmlns="http://www.w3.org/2000/svg"><g><path d="m308.058 296.514h-101.99c-5.522 0-10 4.477-10 10s4.478 10 10 10h101.989c5.522 0 10-4.477 10-10s-4.477-10-9.999-10z"/><path d="m126.445 380.987c-5.522 0-10 4.477-10 10v.057c0 5.523 4.478 9.972 10 9.972s10-4.505 10-10.028-4.477-10.001-10-10.001z"/><path d="m376.428 380.987c-5.522 0-10 4.477-10 10v.057c0 5.523 4.478 9.972 10 9.972s10-4.505 10-10.028-4.478-10.001-10-10.001z"/><path d="m251.45 344.76c-5.522 0-10 4.477-10 10s4.478 10 10 10h.028c5.522 0 9.985-4.477 9.985-10s-4.49-10-10.013-10z"/><path d="m431.362 236.022c-12.146 0-18.518-.368-21.873-2.459-3.573-2.227-7.311-8.502-13.503-18.898-1.02-1.712-36.988-71.444-36.988-71.444-.102-.198-.209-.392-.323-.583-14.637-24.464-28.817-28.592-55.067-28.592h-16.108v-35.304h29.401c5.522 0 10-4.477 10-10s-4.478-10-10-10h-219.765c-5.522 0-10 4.477-10 10s4.478 10 10 10h29.4v35.305h-16.106c-26.951 0-38.229 9.422-44.691 37.334l-19.635 84.642h-18.87c-15.017-.001-27.234 12.204-27.234 27.206v117.61c0 15.002 12.217 27.207 27.234 27.207h39.357c7.428 26.065 31.439 45.213 59.854 45.213s52.426-19.148 59.853-45.213h130.276c7.427 26.065 31.438 45.213 59.853 45.213 28.428 0 52.45-19.148 59.881-45.213h65.692c5.522 0 10-4.477 10-10v-81.412c0-44.45-36.174-80.612-80.638-80.612zm-14.321 20h14.321c26.192 0 48.554 16.687 57.016 39.981h-51.318c-11.038 0-20.019-8.968-20.019-19.991zm-60.012-72.709s20.716 39.81 21.775 41.586c2.521 4.233 4.714 7.91 6.795 11.123h-82.678v-52.709zm-210.493-104.571h120.964v35.305h-120.964zm-126.536 184.487c0-3.974 3.245-7.207 7.234-7.207h16.816v41.002h-24.05zm44.278 124.816h-37.044c-3.989 0-7.234-3.233-7.234-7.207v-16.078h50.031c-3.334 7.136-5.361 14.998-5.753 23.285zm62.167 45.213c-23.292 0-42.242-18.95-42.242-42.243 0-23.292 18.95-42.243 42.242-42.243s42.241 18.95 42.241 42.243c.001 23.293-18.949 42.243-42.241 42.243zm249.983 0c-23.292 0-42.241-18.95-42.241-42.243 0-23.292 18.949-42.243 42.241-42.243 23.308 0 42.27 18.95 42.27 42.243-.001 23.293-18.963 42.243-42.27 42.243zm115.572-45.213h-53.378c-.391-8.287-2.419-16.15-5.755-23.286h59.133zm0-43.285h-73.958c-11.037-9.931-25.63-15.987-41.615-15.987-15.977 0-30.563 6.056-41.595 15.987h-38.482c-5.522 0-10 4.477-10 10s4.478 10 10 10h23.663c-3.334 7.136-5.361 14.999-5.752 23.286h-125.65c-.391-8.287-2.418-16.15-5.752-23.286h23.663c5.522 0 10-4.477 10-10s-4.478-10-10-10h-38.482c-11.032-9.931-25.618-15.987-41.595-15.987s-30.563 6.056-41.596 15.987h-64.849v-27.736h34.05c5.522 0 10-4.477 10-10v-59.858l21.172-91.27c4.593-19.835 8.877-21.85 25.208-21.85h193.178c22.508 0 28.24 2.786 37.736 18.579l5.463 10.688h-229.66c-5.522 0-10 4.477-10 10v72.709c0 5.523 4.478 10 10 10h279.894v19.991c0 22.051 17.952 39.991 40.019 39.991h54.924c.002.211.016.419.016.63zm-209.079-161.447v52.709h-76.093v-52.709zm-96.093 0v52.709h-59.681v-52.709z"/></g></svg>