<svg id="Capa_1" enable-background="new 0 0 512 512" height="512" viewBox="0 0 512 512" width="512" xmlns="http://www.w3.org/2000/svg" fill="#FFFFFF" stroke="#FFFFFF" ><g><path d="m266 0c-27.57 0-50 22.43-50 50v347c0 1.688.285 3.362.842 4.955l35 100c2.106 6.017 7.784 10.045 14.158 10.045s12.052-4.028 14.158-10.045l35-100c.558-1.593.842-3.268.842-4.955v-347c0-27.57-22.43-50-50-50zm-20 382v-230h40v230zm0-290h40v30h-40zm20-62c11.028 0 20 8.972 20 20v12h-40v-12c0-11.028 8.972-20 20-20zm0 421.594-13.858-39.594h27.716z"/><path d="m456 0c-27.57 0-50 22.43-50 50v22h-5c-24.813 0-45 20.187-45 45v130c0 8.284 6.716 15 15 15s15-6.716 15-15v-130c0-8.271 6.729-15 15-15h5v253.967c0 41.414 12.09 81.294 35 115.656v25.377c0 8.284 6.716 15 15 15s15-6.716 15-15v-25.377c22.91-34.362 35-74.242 35-115.656v-305.967c0-27.57-22.43-50-50-50zm-20 50c0-11.028 8.972-20 20-20s20 8.972 20 20v22h-40zm40 305.967c0 28.874-6.86 56.878-20 82.169-13.14-25.291-20-53.295-20-82.169v-253.967h40z"/><path d="m156 75.852v-30.852c0-24.813-20.187-45-45-45h-40c-24.813 0-45 20.187-45 45v30.852l-11.007 71.545c-5.967 38.789-8.993 78.355-8.993 117.599 0 28.425 1.591 57.16 4.73 85.406l5.361 48.254c.048.435.223 1.404.225 1.411l16.759 83.796c3.261 16.304 17.695 28.137 34.321 28.137h47.208c16.626 0 31.06-11.833 34.32-28.137l16.759-83.796c.002-.008.177-.977.225-1.411l5.361-48.254c3.139-28.246 4.73-56.981 4.73-85.406 0-39.244-3.026-78.811-8.993-117.6zm-14.547 271.238-3.879 34.91h-93.148l-3.879-34.91c-3.017-27.152-4.547-54.772-4.547-82.094 0-37.722 2.908-75.753 8.645-113.037l9.224-59.959h74.263l9.224 59.959c5.736 37.284 8.645 75.315 8.645 113.037-.001 27.322-1.531 54.942-4.548 82.094zm-85.453-302.09c0-8.271 6.729-15 15-15h40c8.271 0 15 6.729 15 15v17h-70zm63.506 432.98c-.465 2.329-2.527 4.02-4.902 4.02h-47.208c-2.375 0-4.437-1.69-4.903-4.02l-13.196-65.98h83.406z"/><path d="m91 202c-8.284 0-15 6.716-15 15v120c0 8.284 6.716 15 15 15s15-6.716 15-15v-120c0-8.284-6.716-15-15-15z"/></g></svg>