<svg id="Capa_1" fill="#FFFFFF" stroke="#FFFFFF" enable-background="new 0 0 510.979 510.979" height="512" viewBox="0 0 510.979 510.979" width="512" xmlns="http://www.w3.org/2000/svg"><path id="XMLID_682_" d="m508.844 378.191c-3.722-20.24-13.403-38.654-28.001-53.251-21.937-21.938-50.293-30.523-79.848-24.176-2.675.571-5.59-.327-7.611-2.348l-79.582-79.583 108.428-108.428 19.038 19.038 69.132-69.13-60.251-60.252-69.131 69.131 20 20-108.428 108.429-78.882-78.883c-2.061-2.06-2.95-5.024-2.322-7.738 6.96-30.087-1.515-58.963-23.861-81.309-14.597-14.597-33.011-24.28-53.251-28.001-19.751-3.632-39.912-1.387-58.308 6.488l-20.376 8.723 55.906 55.907-24.181 24.181-55.907-55.906-8.724 20.376c-7.875 18.396-10.119 38.559-6.488 58.308 3.722 20.24 13.403 38.654 28.001 53.251 21.938 21.937 50.294 30.523 79.85 24.176 2.671-.574 5.586.325 7.609 2.348l79.506 79.506-27.175 27.175-25.511-25.511-134.037 109.723-.311.262c-14.338 12.4-22.954 30.377-23.64 49.321-.686 18.945 6.608 37.498 20.014 50.903 12.826 12.826 30.365 20.058 48.451 20.058.815 0 1.634-.015 2.451-.044 18.944-.686 36.922-9.302 49.322-23.641l109.984-134.346-25.51-25.511 27.175-27.176 78.958 78.958c2.061 2.061 2.951 5.026 2.323 7.738-6.961 30.087 1.513 58.963 23.86 81.31 14.597 14.597 33.011 24.28 53.251 28 6.143 1.129 12.324 1.69 18.481 1.69 13.639 0 27.151-2.753 39.826-8.179l20.376-8.723-55.906-55.907 24.181-24.181 55.907 55.907 8.724-20.376c7.875-18.395 10.119-38.558 6.488-58.307zm-58.695-335.703 17.825 17.825-26.705 26.705-17.825-17.825zm-352.236 425.323c-7.063 8.088-16.854 12.754-27.594 13.143-5.541.201-10.913-.761-15.866-2.772l37.219-37.219c5.858-5.858 5.858-15.355 0-21.213-5.857-5.858-15.355-5.858-21.213 0l-37.219 37.22c-2.01-4.952-2.972-10.323-2.771-15.867.389-10.739 5.055-20.531 13.143-27.593l64.844-53.082 42.539 42.539zm72.179-88.173-38.307-38.307 24.679-20.203 33.83 33.831zm310.34 21.611-42.707-42.707-66.606 66.607 42.706 42.707c-20.118 1.351-40.206-5.913-55.096-20.802-18.918-18.917-19.059-39.445-15.845-53.335 2.984-12.904-.88-26.254-10.338-35.712l-179.676-179.677c-7.337-7.337-17.075-11.319-27.111-11.319-2.662 0-5.347.28-8.012.853-19.541 4.192-37.635-1.358-52.337-16.058-14.889-14.889-22.154-34.975-20.802-55.096l42.707 42.707 66.606-66.607-42.705-42.706c20.12-1.355 40.206 5.914 55.095 20.802 18.918 18.917 19.059 39.445 15.846 53.333-2.986 12.904.879 26.256 10.338 35.714l179.678 179.679c9.283 9.283 22.416 13.195 35.122 10.465 19.536-4.196 37.635 1.356 52.336 16.058 14.888 14.887 22.154 34.973 20.801 55.094z"/></svg>