<?xml version="1.0" encoding="iso-8859-1"?>
<!-- Generator: Adobe Illustrator 19.0.0, SVG Export Plug-In . SVG Version: 6.00 Build 0)  -->
<svg version="1.1" id="Capa_1" xmlns="http://www.w3.org/2000/svg" xmlns:xlink="http://www.w3.org/1999/xlink" x="0px" y="0px"
	 viewBox="0 0 480.008 480.008" style="enable-background:new 0 0 480.008 480.008;" xml:space="preserve">
<g>
	<g>
		<path d="M401.669,42.352l-32-32c-1.5-1.5-3.534-2.344-5.656-2.344h-176c-4.418,0-8,3.582-8,8v8h-24c-4.418,0-8,3.582-8,8v40
			c0,4.418,3.582,8,8,8h24c0,4.418,3.582,8,8,8h6.24l-14.08,70.4c-0.884,4.329,1.909,8.555,6.238,9.438
			c0.527,0.108,1.064,0.162,1.602,0.162h32c3.802,0.001,7.08-2.675,7.84-6.4l14.72-73.6h33.44v72h-8c-4.418,0-8,3.582-8,8v48
			c0,13.255-10.745,24-24,24c-22.08,0.026-39.974,17.92-40,40v192c0,4.418,3.582,8,8,8h160c4.418,0,8-3.582,8-8v-304
			c0-4.418-3.582-8-8-8h-8v-72h40c4.418,0,8-3.582,8-8v-32C404.012,45.886,403.169,43.852,401.669,42.352z M180.013,64.008h-16v-24
			h16V64.008z M213.453,152.008h-15.68l12.8-64h15.68L213.453,152.008z M212.013,328.008h96v80h-96V328.008z M356.013,464.008h-144
			v-40h104c4.418,0,8-3.582,8-8v-96c0-4.418-3.582-8-8-8h-104v-16h64c4.418,0,8-3.582,8-8s-3.582-8-8-8h-64
			c0-13.255,10.745-24,24-24c22.08-0.026,39.974-17.92,40-40v-40h80V464.008z M292.013,160.008v-72h48v72H292.013z M388.013,72.008
			h-192v-48h164.688l27.312,27.312V72.008z"/>
	</g>
</g>
<g>
	<g>
		<path d="M124.013,48.008h-40c-4.418,0-8,3.582-8,8s3.582,8,8,8h40c4.418,0,8-3.582,8-8S128.431,48.008,124.013,48.008z"/>
	</g>
</g>
<g>
	<g>
		<path d="M126.989,16.576l-40-16c-4.105-1.644-8.764,0.351-10.408,4.456c-1.644,4.105,0.351,8.764,4.456,10.408l40,16
			c0.948,0.374,1.957,0.567,2.976,0.568c4.418,0.008,8.007-3.566,8.015-7.985C132.034,20.742,130.037,17.79,126.989,16.576z"/>
	</g>
</g>
<g>
	<g>
		<path d="M131.445,85.032c-1.644-4.105-6.303-6.1-10.408-4.456l-40,16c-4.105,1.635-6.107,6.288-4.471,10.393
			c1.214,3.048,4.166,5.046,7.447,5.039c1.019-0.001,2.028-0.194,2.976-0.568l40-16C131.093,93.796,133.088,89.136,131.445,85.032z"
			/>
	</g>
</g>
<g>
	<g>
		<path d="M316.013,280.008h-16c-4.418,0-8,3.582-8,8s3.582,8,8,8h16c4.418,0,8-3.582,8-8S320.431,280.008,316.013,280.008z"/>
	</g>
</g>
<g>
</g>
<g>
</g>
<g>
</g>
<g>
</g>
<g>
</g>
<g>
</g>
<g>
</g>
<g>
</g>
<g>
</g>
<g>
</g>
<g>
</g>
<g>
</g>
<g>
</g>
<g>
</g>
<g>
</g>
</svg>
