<?xml version="1.0"?>
<svg xmlns="http://www.w3.org/2000/svg" id="outline" viewBox="0 0 512 512" width="512" height="512"><path d="M384,24a8.00008,8.00008,0,0,0-8-8H136a8.00008,8.00008,0,0,0-8,8V68.82373A62.16765,62.16765,0,0,0,112,110.627V488a8.00008,8.00008,0,0,0,8,8h88a8.00008,8.00008,0,0,0,8-8V448.72168l40-220,40,220V488a8.00008,8.00008,0,0,0,8,8h88a8.00008,8.00008,0,0,0,8-8V110.627a62.16765,62.16765,0,0,0-16-41.80322ZM144,32H368V64H296V56h8V40H272V56h8v8H232V56h8V40H208V56h8v8H144ZM128,480V456h72v24ZM256,176a8.00006,8.00006,0,0,0-7.87109,6.56934L201.32324,440H128V110.627A46.27509,46.27509,0,0,1,139.48364,80H216v40h16V80h48v40h16V80h76.51636A46.27509,46.27509,0,0,1,384,110.627V440H310.67676L263.87109,182.56934A8.00006,8.00006,0,0,0,256,176Zm56,304V456h72v24Z"/></svg>
