<svg width="50" height="50" viewBox="0 0 50 50" fill="none" xmlns="http://www.w3.org/2000/svg">
<path d="M25 2.5C12.595 2.5 2.5 12.595 2.5 25C2.5 31.825 5.55 38.21 10.87 42.505C14.855 45.725 19.875 47.5 25 47.5C30.125 47.5 35.145 45.725 39.13 42.505C44.45 38.21 47.5 31.825 47.5 25C47.5 12.595 37.405 2.5 25 2.5ZM12.5 41.24V40C12.5 33.105 18.105 27.5 25 27.5C31.895 27.5 37.5 33.105 37.5 40V41.24C33.89 44.025 29.58 45.5 25 45.5C20.42 45.5 16.11 44.025 12.5 41.24ZM19 19.5C19 16.19 21.69 13.5 25 13.5C28.31 13.5 31 16.19 31 19.5C31 22.81 28.31 25.5 25 25.5C21.69 25.5 19 22.81 19 19.5ZM39.485 39.495C39.27 33.25 35.09 27.995 29.385 26.18C31.56 24.75 33 22.29 33 19.5C33 15.09 29.41 11.5 25 11.5C20.59 11.5 17 15.09 17 19.5C17 22.29 18.44 24.75 20.61 26.18C14.905 27.995 10.725 33.25 10.51 39.495C6.67 35.665 4.5 30.49 4.5 25C4.5 13.695 13.695 4.5 25 4.5C36.305 4.5 45.5 13.695 45.5 25C45.5 30.49 43.33 35.665 39.485 39.495Z" fill="white"/>
</svg>
